<svg xmlns="http://www.w3.org/2000/svg" width="100" height="160" viewBox="0 0 100 160"><path fill="#BF263B" d="M34 46v60c16.567 0 30-13.433 30-30S50.567 46 34 46z"/><path fill="#3FA936" d="M100 0v24l-70 3.5V160H0V0h100"/><circle fill="#BF263B" cx="177" cy="95" r="30"/><path fill="#FFF" d="M247-4H139v168h38V32.305l66.2-3.31 3.8-.19V-4z"/><path fill="#3FA936" d="M243 0v24l-70 3.5V160h-30V0h100M273 0h30v160h-30z"/><path fill="#3FA936" d="M373 25l-100 5V0h100z"/><circle fill="#BF263B" cx="323" cy="90" r="10"/></svg>