<svg className="p-company-logo" xmlns="http://www.w3.org/2000/svg" viewBox="0 0 590.664 160"><path  className="p-company-logo--accent" d="M34 50.5v60c17 0 30-13.434 30-30 0-16.567-13-30-30-30z"/><path  className="p-company-logo--main" d="M100 0v23.5L30 27v133H0V0h100M166.721 112.205v12.432h17.557v9.492h-17.557v24.612h-10.92v-56.028h29.652v9.492h-18.732zm85.847 18.565c0 16.548-13.188 29.23-30.24 29.23-16.8 0-29.651-12.852-29.651-29.652 0-15.959 13.439-28.895 30.071-28.895 16.716 0 29.82 12.852 29.82 29.317zm-48.635-.252c0 10.836 8.315 19.487 18.731 19.487 10.248 0 18.648-8.651 18.648-19.319s-8.316-19.236-18.732-19.236c-10.164-.001-18.647 8.652-18.647 19.068zm116.591.252c0 16.548-13.188 29.23-30.24 29.23-16.8 0-29.651-12.852-29.651-29.652 0-15.959 13.439-28.895 30.071-28.895 16.716 0 29.82 12.852 29.82 29.317zm-48.635-.252c0 10.836 8.315 19.487 18.731 19.487 10.248 0 18.647-8.651 18.647-19.319s-8.315-19.236-18.731-19.236c-10.164-.001-18.647 8.652-18.647 19.068zm59.555-27.805h16.044c8.231 0 14.784 2.1 20.076 6.469 6.3 5.123 9.995 13.104 9.995 21.504 0 8.315-3.779 16.295-10.163 21.588-5.377 4.535-11.509 6.468-19.992 6.468h-15.96v-56.029zm13.861 46.535c7.057 0 11.508-1.344 14.952-4.452 3.779-3.36 6.048-8.735 6.048-14.112 0-5.375-2.269-10.584-6.048-13.943-3.612-3.276-7.896-4.536-14.952-4.536h-2.939v37.043h2.939zM166.721 10.752v12.433h17.557v9.491h-17.557v24.612h-10.92V1.261h29.652v9.491h-18.732zm85.847 18.565c0 16.547-13.188 29.23-30.24 29.23-16.8 0-29.651-12.852-29.651-29.65 0-15.961 13.439-28.896 30.071-28.896 16.716-.001 29.82 12.852 29.82 29.316zm-48.635-.252c0 10.836 8.315 19.486 18.731 19.486 10.248 0 18.648-8.65 18.648-19.318S232.996 9.997 222.58 9.997c-10.164-.001-18.647 8.652-18.647 19.068zm70.475 4.284c0 5.713.336 7.561 1.765 9.995 1.848 3.192 5.628 5.208 9.827 5.208 4.2 0 7.98-2.016 9.828-5.208 1.428-2.437 1.765-4.282 1.765-9.995V1.261h10.92v34.271c0 6.552-1.261 11.172-4.115 14.951-3.865 5.041-10.752 8.064-18.397 8.064-7.644 0-14.531-3.023-18.396-8.063-2.856-3.78-4.116-8.4-4.116-14.953V1.262h10.92v32.087h-.001zM322.204 0h7.561l34.104 38.978V1.261h10.92V58.38h-7.56l-34.104-38.977v37.885h-10.92L322.204 0zm66.275 1.261h16.045c8.231 0 14.783 2.1 20.075 6.469 6.301 5.123 9.996 13.104 9.996 21.504 0 8.314-3.779 16.295-10.164 21.588-5.376 4.535-11.508 6.468-19.991 6.468h-15.961V1.261zm13.861 46.535c7.057 0 11.508-1.344 14.952-4.452 3.779-3.358 6.048-8.735 6.048-14.11 0-5.377-2.269-10.584-6.048-13.944-3.612-3.275-7.896-4.536-14.952-4.536h-2.94v37.044l2.94-.002zm54.095 9.492h-10.92V1.261h10.92v56.027zM470.126 0h7.562l34.104 38.978V1.261h10.92V58.38h-7.56l-34.104-38.977v37.885h-10.92L470.126 0zm120.538 27.3c-.084 8.232-.756 12.35-2.939 16.633-4.619 9.407-13.271 14.615-24.359 14.615-16.969 0-29.399-12.18-29.399-28.979 0-17.137 12.517-29.568 29.735-29.568 10.416 0 18.731 4.536 24.023 13.188l-9.575 5.125c-3.36-5.545-8.232-8.316-14.532-8.316-10.584 0-18.396 8.316-18.396 19.572 0 10.92 7.813 19.066 18.313 19.066 7.979 0 13.859-4.703 14.7-11.844h-13.188V27.3h25.617z"/></svg>